<?xml version="1.0" encoding="UTF-8"?>
<svg id="Layer_1" data-name="Layer 1" xmlns="http://www.w3.org/2000/svg" viewBox="0 0 1809.65 513.88">
  <defs>
    <style>
      .cls-1 {
        fill: #c50928;
        font-family: GoboldUplow, 'Gobold Uplow';
        font-size: 238.32px;
      }

      .cls-2 {
        fill: #003c84;
      }

      .cls-3 {
        fill: #292929;
        font-family: Impact, Impact;
        font-size: 148.33px;
      }

      .cls-4 {
        fill: #3a3a3a;
      }

      .cls-5 {
        fill: #4b4b4b;
        font-family: Cambria-Bold, Cambria;
        font-size: 98.89px;
        font-weight: 700;
      }

      .cls-6 {
        fill: #565656;
      }

      .cls-7 {
        fill: none;
        stroke: #3a3a3a;
        stroke-miterlimit: 10;
      }
    </style>
  </defs>
  <g>
    <path class="cls-6" d="M518.99,301.69c-145.16,0-290.32,0-435.48,0-.69,0-1.38,0-2.08-.01-.5,0-.85-.18-.87-.76-.03-.67.34-.88.93-.89.63,0,1.26,0,1.89,0,65.22,0,130.44,0,195.66,0,225.16,0,450.32,0,675.49,0,.69,0,1.38.01,2.08,0,.59,0,.95.18.94.86-.01.71-.45.8-1,.8-.63,0-1.26,0-1.89,0-145.22,0-290.45,0-435.67,0Z"/>
    <g>
      <path class="cls-2" d="M375.2,183.92v-3.58c0-23.9.01-47.79-.03-71.69,0-1.49.25-2.03,1.91-2.01,11.38.08,22.77.07,34.15.01,1.35,0,1.8.25,1.8,1.73-.04,56.85-.04,113.69,0,170.54,0,1.36-.26,1.81-1.73,1.8-12.14-.07-24.28-.06-36.41,0-1.25,0-1.68-.43-2.02-1.59-7.35-24.79-14.74-49.56-22.13-74.34-.16-.52-.33-1.04-.92-1.55v2.06c0,24.4-.02,48.8.05,73.2,0,1.86-.5,2.26-2.29,2.24-11.26-.09-22.51-.07-33.77-.01-1.44,0-1.91-.31-1.91-1.84.04-56.78.04-113.57,0-170.35,0-1.5.42-1.87,1.89-1.87,11.38.06,22.77.06,34.15,0,1.43,0,2.02.38,2.47,1.78,7.89,24.55,15.86,49.09,23.81,73.62.21.64.46,1.27.7,1.9.1-.01.2-.02.3-.03Z"/>
      <path class="cls-2" d="M96.42,218.38c6.35,0,12.71.08,19.05-.05,1.76-.04,2.03.54,2.01,2.11-.08,7.04-.03,14.09-.02,21.13,0,2.52.25,5.01.68,7.5.52,2.95,1.97,4.99,5.05,5.58,3.44.66,6.54.17,8.74-2.89,1.68-2.33,2.19-5.08,2.36-7.84.37-5.79.08-11.55-1.26-17.24-.76-3.23-2.36-5.89-4.91-8.04-5.1-4.31-10.6-8.07-16.14-11.77-7.16-4.79-14.26-9.64-21.2-14.75-8.16-6.01-13.01-14.12-15.1-23.81-2.69-12.46-2.26-25,.4-37.43,2-9.34,7.6-16.1,15.83-20.78,6.72-3.82,14.02-5.79,21.65-6.58,11.69-1.21,23.22-.54,34.47,3.15,2.99.98,5.82,2.31,8.62,3.76,9.54,4.93,14.67,12.75,15.91,23.38.94,8.02,1.14,16.04,1.12,24.1,0,1.07-.31,1.4-1.38,1.4-13.08-.03-26.16-.03-39.24,0-1.24,0-1.42-.52-1.42-1.57-.02-5.28.18-10.57-.17-15.84-.08-1.25-.21-2.51-.41-3.74-.56-3.47-1.84-4.94-4.74-5.53-3.24-.66-6.04.42-7.74,3.02-1.31,2-1.76,4.27-2,6.6-.46,4.42-.19,8.78.79,13.11.69,3.06,2.28,5.53,4.62,7.59,3.13,2.76,6.64,4.97,10.19,7.1,9.22,5.54,18.14,11.48,26.69,18.04,10.04,7.7,15.82,17.62,17.38,30.13,1.51,12.1,1.78,24.18-.28,36.25-1.51,8.88-6.03,15.69-13.63,20.53-8,5.1-16.78,7.91-26.16,8.88-11.78,1.21-23.35.4-34.51-3.91-4.54-1.75-8.71-4.17-12.58-7.12-7.85-5.98-11-14.35-12.41-23.72-1.46-9.75-1.18-19.56-1.27-29.36-.01-1.27.52-1.41,1.57-1.4,6.48.04,12.96.02,19.43.02Z"/>
      <path class="cls-2" d="M294.07,144.22c-1.41-17.09-9.8-29.61-25.66-36.28-16.05-6.76-32.63-6.81-49-1.04-13.19,4.65-22.08,13.9-26.28,27.35-2.22,7.1-2.19,14.52-2.43,21.86-.66,19.87-.34,39.74-.32,59.61.01,9.3.15,18.62,1.03,27.89,1.61,16.93,10,29.27,25.71,35.85,16,6.7,32.49,6.7,48.83,1.05,10.98-3.8,19.12-11.1,24.2-21.67,3.17-6.61,3.97-13.7,4.32-20.89.71-14.71.6-29.42.63-46.33-.11-14.34.34-30.89-1.02-47.4ZM249.56,242.55c-.09,2.39-.3,4.77-.76,7.11-.68,3.52-2.82,5.3-6.28,5.26-3.58-.04-5.52-1.7-6.1-5.37-.55-3.48-.75-7.01-.76-10.52-.04-30.48-.05-60.97-.02-91.46,0-3.45.17-6.92,1.04-10.29.82-3.19,3.23-4.95,6.51-4.85,3.16.1,4.94,1.61,5.68,4.96.89,4.02.91,8.12.93,12.19.06,14.46.02,28.91.02,47.38-.18,12.52.34,29.05-.27,45.58Z"/>
      <path class="cls-2" d="M535.06,279.25c-.36-1.52-.47-3.1-.7-4.66-2.59-17.33-5.19-34.66-7.77-52-2.7-18.14-5.37-36.29-8.07-54.43-2.96-19.88-5.97-39.76-8.86-59.65-.23-1.6-.82-1.87-2.25-1.86-10.25.06-20.5.03-30.75.03s-20.75.02-31.13-.03c-1.27,0-1.74.36-1.9,1.61-1.64,12.71-3.32,25.42-4.99,38.12-1.94,14.7-3.88,29.4-5.83,44.1-1.95,14.7-3.91,29.39-5.85,44.09-1.95,14.76-3.86,29.53-5.87,44.28-.21,1.54.07,1.87,1.6,1.87,14.4-.05,28.8-.05,43.21,0,1.43,0,1.91-.38,2.02-1.81.75-9.33,1.61-18.66,2.35-28,.1-1.22.45-1.58,1.66-1.56,4.21.07,8.43.13,12.64-.02,1.75-.06,2.21.54,2.31,2.16.59,9.16,1.31,18.31,1.88,27.47.09,1.38.43,1.77,1.84,1.76,9.43-.07,18.87-.03,28.3-.03,4.97,0,9.94-.03,14.91.02,1.16.01,1.56-.19,1.26-1.46ZM481.16,218.56c-3.21,0-6.41-.07-9.62.03-1.39.04-1.7-.43-1.56-1.73.96-9.06,1.75-18.13,2.84-27.17,1.59-13.28,3.37-26.54,5.07-39.8.13-.99.29-1.98.44-2.96.07-.02.15-.05.22-.07.78,9.13,1.54,18.27,2.35,27.4,1.18,13.33,2.43,26.65,4,39.94.52,4.38.61,4.37-3.74,4.37Z"/>
    </g>
    <g>
      <path class="cls-2" d="M929.25,146.02c0-11.89.02-23.77-.03-35.66,0-1.34.24-1.83,1.72-1.82,9.87.07,19.75.07,29.62,0,1.43,0,1.81.38,1.78,1.79-.09,3.9-.08,7.8,0,11.7.02,1.26-.41,1.61-1.63,1.59-3.39-.07-6.79.05-10.19-.06-1.46-.05-1.79.44-1.75,1.81.09,3.58.09,7.17,0,10.75-.04,1.36.43,1.69,1.71,1.65,2.95-.09,5.91.02,8.87-.05,1.16-.03,1.53.35,1.51,1.5-.06,3.77-.06,7.55,0,11.32.02,1.14-.3,1.54-1.48,1.51-2.95-.07-5.92.06-8.87-.06-1.49-.06-1.75.46-1.74,1.82.06,9.24-.02,18.49.07,27.73.02,1.73-.52,2.08-2.12,2.05-5.22-.1-10.44-.1-15.66,0-1.54.03-1.85-.49-1.84-1.92.05-11.88.03-23.77.03-35.66Z"/>
      <path class="cls-2" d="M921.68,125.91c-.46-9.17-5.62-15.62-14.46-17.97-3.63-.97-7.33-1.08-11.05-.8-11.21.82-18.45,7.93-18.95,18.89-.62,13.38-.6,26.78,0,40.17.41,9.05,5.32,15.3,13.73,17.75,5.3,1.55,10.68,1.64,16.02.27,9.1-2.31,14.27-8.79,14.71-18.14.32-6.66.36-13.32.32-19.99.04-6.73.01-13.45-.33-20.18ZM902.44,145.98c0,6.66.02,13.32-.02,19.97,0,1.37-.18,2.75-.37,4.12-.21,1.51-1.09,2.33-2.68,2.32-1.59,0-2.4-.8-2.64-2.35-.26-1.75-.34-3.5-.34-5.26,0-12.69,0-25.37,0-38.06,0-1.57.08-3.14.39-4.69.29-1.51,1.24-2.33,2.74-2.36,1.55-.03,2.36.85,2.64,2.39.24,1.31.29,2.62.29,3.94.01,6.66,0,13.32,0,19.97h-.02Z"/>
    </g>
    <g>
      <path class="cls-2" d="M799.67,178.23c-3.06,5.05-7.46,7.13-12.98,6.88-9.85-.45-17.35-7.72-17.84-17.55-.7-14.2-.69-28.4.03-42.6.45-8.77,5.77-15.02,14.35-17.1,5.42-1.31,10.86-1.2,16.21.36,8.36,2.43,12.97,7.99,13.9,16.59.36,3.32.43,6.65.44,9.98,0,1.03-.24,1.41-1.35,1.4-5.6-.05-11.19-.06-16.79,0-1.24.01-1.44-.47-1.43-1.55,0-3.77-.02-7.54-.16-11.31-.06-1.65-.33-3.38-2.52-3.61-1.54-.16-2.76.34-3.11,2.02-.18.86-.34,1.74-.34,2.61-.02,14.33-.03,28.67-.01,43,0,.93.18,1.87.35,2.8.26,1.42,1.12,2.19,2.59,2.25,1.48.06,2.59-.5,3.11-1.93.55-1.49.67-3.07.7-4.64.05-3.21-.02-6.41.07-9.62.04-1.26-.38-1.76-1.59-1.53-2.04.38-2.54-.55-2.42-2.45.16-2.5.08-5.03.02-7.54-.03-1.06.3-1.4,1.38-1.4,6.73.04,13.46.04,20.18,0,.97,0,1.29.25,1.29,1.26-.03,12.57-.03,25.15,0,37.72,0,.98-.29,1.32-1.28,1.3-3.27-.05-6.54-.05-9.81,0-.93.01-1.35-.35-1.6-1.19-.39-1.31-.87-2.59-1.41-4.15Z"/>
      <path class="cls-2" d="M572.19,146.01c0,7.1-.01,14.21.02,21.31,0,.93.18,1.87.36,2.79.33,1.73,1.54,2.3,3.17,2.28,1.61-.02,2.63-.76,2.92-2.36.18-.99.35-1.99.36-2.99.07-4.02.1-8.05.1-12.07,0-.96.12-1.49,1.31-1.48,5.66.05,11.32.03,16.98.01.81,0,1.26.1,1.26,1.1,0,5.16-.05,10.31-.93,15.42-1.24,7.2-6.08,11.28-12.5,13.56-6.99,2.47-14.13,2.13-21.06-.46-6.42-2.4-9.96-7.19-10.8-13.97-.27-2.18-.65-4.37-.67-6.56-.09-12.89-.68-25.79.34-38.65.61-7.74,5.25-12.76,12.42-15.31,6.8-2.42,13.75-2.29,20.53.07,7.78,2.71,11.69,8.41,12.28,16.61.34,4.84.3,9.67.39,14.51.02,1.21-.4,1.47-1.51,1.46-5.47-.05-10.94-.06-16.41,0-1.4.02-1.64-.53-1.64-1.77.01-5.34.01-10.69-.14-16.03-.09-3.17-1.57-4.31-4.25-3.69-1.17.27-1.86.94-2.15,2.1-.5,1.98-.45,4-.47,6-.04,6.04-.01,12.07-.01,18.11.03,0,.06,0,.1,0Z"/>
      <path class="cls-2" d="M821.3,145.99c0-11.88.02-23.76-.03-35.64,0-1.34.23-1.82,1.72-1.81,9.74.07,19.49.06,29.23.01,1.18,0,1.63.25,1.61,1.54-.08,3.96-.09,7.92,0,11.88.03,1.38-.46,1.68-1.73,1.65-3.27-.08-6.54.02-9.81-.05-1.19-.03-1.49.37-1.47,1.51.06,3.77.06,7.54,0,11.31-.02,1.09.36,1.39,1.41,1.37,3.02-.06,6.04.03,9.05-.04,1.25-.03,1.78.22,1.74,1.62-.1,3.71-.08,7.42,0,11.12.02,1.21-.29,1.63-1.55,1.59-3.08-.09-6.16.01-9.24-.05-1.06-.02-1.41.31-1.4,1.38.05,4.59.06,9.18,0,13.76-.02,1.23.46,1.45,1.55,1.43,3.77-.05,7.54.02,11.31-.05,1.17-.02,1.5.36,1.49,1.5-.06,4.02-.06,8.05,0,12.07.02,1.21-.46,1.47-1.56,1.47-10.25-.03-20.49-.05-30.74.01-1.43,0-1.6-.55-1.6-1.77.04-11.94.02-23.88.02-35.83Z"/>
      <path class="cls-2" d="M729.6,145.97c0-11.88.02-23.76-.03-35.64,0-1.37.29-1.8,1.74-1.79,9.68.07,19.36.07,29.04,0,1.4,0,1.82.32,1.78,1.76-.11,3.83-.09,7.67,0,11.5.03,1.36-.27,1.88-1.75,1.82-3.2-.12-6.41,0-9.62-.06-1.15-.02-1.67.21-1.64,1.53.09,3.71.09,7.42,0,11.12-.03,1.3.45,1.57,1.63,1.54,3.02-.07,6.04.02,9.05-.04,1.11-.02,1.55.24,1.52,1.45-.08,3.83-.06,7.67,0,11.5.02,1.08-.32,1.39-1.38,1.37-3.08-.06-6.16.01-9.24-.04-1.05-.02-1.59.13-1.57,1.4.07,4.59.07,9.18,0,13.76-.02,1.27.52,1.42,1.57,1.4,3.71-.05,7.42.04,11.13-.05,1.36-.03,1.68.44,1.66,1.72-.07,3.9-.07,7.79,0,11.69.02,1.2-.3,1.65-1.58,1.64-10.25-.04-20.49-.05-30.74,0-1.46,0-1.58-.6-1.58-1.79.03-11.94.02-23.88.02-35.83Z"/>
      <path class="cls-2" d="M693.51,146.04c0-11.76.05-23.52-.05-35.28-.02-1.89.55-2.27,2.31-2.23,4.97.12,9.94.13,14.9,0,1.82-.05,2.4.31,2.39,2.3-.09,18.49-.03,36.98-.1,55.46,0,1.76.33,2.43,2.23,2.3,2.76-.18,5.53,0,8.3-.07,1.04-.02,1.44.26,1.43,1.36-.05,4.09-.05,8.18,0,12.26.01,1.07-.36,1.41-1.42,1.4-9.5-.03-18.99-.05-28.49.01-1.56.01-1.52-.8-1.52-1.89.02-10.82.01-21.63.01-32.45v-3.21Z"/>
      <path class="cls-2" d="M657.48,146.15c0-11.88.03-23.77-.04-35.65,0-1.59.41-1.98,1.97-1.95,5.22.1,10.44.11,15.66,0,1.63-.03,1.94.5,1.94,2.02-.05,18.55,0,37.1-.07,55.65,0,1.84.35,2.55,2.35,2.4,2.69-.2,5.41-.02,8.11-.07.97-.02,1.48.12,1.46,1.3-.07,4.15-.05,8.3,0,12.45.01,1.01-.36,1.28-1.31,1.28-9.56-.03-19.12-.05-28.68.02-1.54.01-1.38-.83-1.38-1.79,0-11.88,0-23.77,0-35.65Z"/>
      <path class="cls-2" d="M649.77,125.21c-.43-8.49-4.97-14.21-13.05-16.85-5.81-1.9-11.77-1.9-17.65-.18-8.32,2.44-13.16,8.76-13.65,17.41-.39,6.79-.34,13.58-.35,20.37,0,6.85-.03,13.7.35,20.55.47,8.47,5.21,14.73,13.32,17.28,5.47,1.72,11.02,1.81,16.55.38,8.53-2.21,13.71-7.82,14.35-16.55,1.04-14.12.84-28.28.12-42.41ZM630.29,169.9c-.18,1.55-1.03,2.51-2.74,2.5-1.6-.01-2.44-.83-2.61-2.37-.11-1-.26-2-.27-2.99-.02-6.97-.01-13.94-.01-20.91,0,0,0,0-.01,0,0-7.03-.02-14.07.02-21.1,0-1.12.16-2.26.42-3.35.33-1.43,1.42-2.03,2.82-1.99,1.38.05,2.22.87,2.4,2.21.19,1.49.36,3,.37,4.5.03,12.69.03,25.37,0,38.06,0,1.82-.17,3.64-.38,5.44Z"/>
    </g>
    <g>
      <path class="cls-2" d="M709.3,248.28c0,10.19-.03,20.38.03,30.56.01,1.57-.27,2.2-2.03,2.14-4.33-.14-8.68-.1-13.02-.02-1.46.03-1.94-.35-1.92-1.88.08-7.8-.01-15.6.07-23.39.02-1.68-.38-2.48-2.16-2.17-.43.07-.89.07-1.32,0-1.37-.21-1.66.41-1.65,1.69.05,7.99,0,15.97.06,23.96.01,1.41-.34,1.82-1.77,1.79-4.53-.09-9.06-.08-13.58,0-1.36.02-1.66-.45-1.66-1.72.04-20.63.03-41.25,0-61.88,0-1.21.29-1.62,1.56-1.6,4.59.07,9.18.08,13.77,0,1.33-.02,1.69.35,1.67,1.67-.07,6.6,0,13.21-.06,19.81-.01,1.4.25,1.98,1.82,1.92,3.27-.11,3.27-.02,3.27-3.32,0-6.1.04-12.2-.03-18.3-.02-1.4.35-1.82,1.79-1.79,4.46.1,8.93.09,13.39,0,1.42-.03,1.79.36,1.78,1.78-.06,10.25-.03,20.5-.03,30.75Z"/>
      <path class="cls-2" d="M730.31,252.61c0,8.73-.05,17.47.04,26.2.02,1.76-.48,2.23-2.19,2.16-3.52-.13-7.04-.08-10.56-.02-1.13.02-1.53-.31-1.52-1.49.03-20.75.03-41.49,0-62.24,0-1.18.39-1.49,1.52-1.47,3.71.06,7.42.08,11.13,0,1.23-.03,1.7.39,2.07,1.54,2.65,8.37,5.39,16.72,8.11,25.07.16.5.18,1.09.88,1.64v-2c0-8.11.05-16.22-.04-24.33-.02-1.61.46-1.98,1.99-1.93,3.52.12,7.04.07,10.56.02,1.15-.02,1.66.21,1.66,1.53-.04,20.68-.04,41.36,0,62.05,0,1.22-.36,1.64-1.61,1.62-3.9-.07-7.8-.08-11.69,0-1.26.03-1.7-.45-2.04-1.6-2.46-8.43-4.99-16.84-7.5-25.26-.16-.52-.32-1.04-.49-1.57-.11.02-.21.04-.32.07Z"/>
      <path class="cls-2" d="M907.46,276.36c-1.89,2.76-4.02,4.68-7.04,5.47-9.59,2.5-19.29-4.72-19.81-15.05-.61-11.99-.58-24.01,0-36,.46-9.45,6.69-15.51,16.21-16.2,3.03-.22,6.06-.23,9,.54,7.43,1.94,12.84,6.11,13.51,15.26.19,2.63.2,5.27.35,7.91.06,1.11-.28,1.56-1.47,1.54-4.65-.06-9.3-.07-13.96,0-1.34.02-1.54-.52-1.53-1.66.03-3.33.11-6.66-.25-9.98-.17-1.56-.67-2.67-2.47-2.69-1.8-.02-2.42,1.07-2.51,2.64-.11,1.82-.27,3.64-.27,5.46-.03,9.93-.03,19.86,0,29.79,0,1.82.14,3.64.33,5.45.14,1.38.83,2.36,2.4,2.4,1.57.05,2.53-.75,2.83-2.22.83-4.11.33-8.27.41-12.41.02-1.15-.98-.82-1.55-.75-1.48.16-1.96-.37-1.87-1.86.13-2.26.08-4.53.01-6.79-.03-1.01.33-1.27,1.3-1.27,5.72.04,11.44.04,17.16,0,1.01,0,1.45.2,1.44,1.34-.04,10.75-.04,21.5,0,32.25,0,1.24-.53,1.45-1.59,1.43-2.51-.05-5.03-.09-7.54.01-1.24.05-1.83-.39-2.1-1.56-.21-.91-.58-1.79-1.01-3.04Z"/>
      <path class="cls-2" d="M641.28,248.37c0,5.59-.01,11.19,0,16.78,0,1.06.11,2.13.21,3.19.16,1.68.81,2.9,2.77,2.9,1.82,0,2.61-.68,2.88-2.98.44-3.63.19-7.28.23-10.93.03-2.45,0-2.45,2.39-2.45,4.34,0,8.68,0,13.01,0,.69,0,1.55-.27,1.55,1,0,4.72.05,9.44-.98,14.07-1.41,6.31-5.98,9.59-11.71,11.33-5.42,1.65-10.96,1.35-16.34-.38-7.18-2.32-10.2-7.75-10.59-14.89-.68-12.25-.67-24.5,0-36.75.35-6.37,4.95-11.73,11.71-13.73,5.57-1.65,11.21-1.59,16.7.3,6.34,2.17,10.05,6.57,10.78,13.39.48,4.58.41,9.16.45,13.75,0,.88-.25,1.21-1.17,1.21-4.84-.03-9.68-.05-14.52,0-1.2.01-1.28-.59-1.28-1.52,0-4.59.02-9.18-.1-13.77-.07-2.72-.97-3.53-3.17-3.39-1.39.09-2.26.75-2.44,2.14-.17,1.3-.35,2.62-.35,3.93-.04,5.59-.02,11.19-.02,16.78Z"/>
      <path class="cls-2" d="M590.61,248.21c0-10.19.03-20.37-.03-30.56,0-1.44.32-1.92,1.85-1.9,8.17.08,16.35.08,24.52,0,1.51-.01,1.92.44,1.87,1.9-.1,3.2-.08,6.41,0,9.62.03,1.22-.34,1.66-1.6,1.62-2.76-.08-5.53.01-8.3-.04-1.06-.02-1.43.32-1.41,1.39.05,3.21.05,6.41,0,9.62-.01.99.33,1.31,1.31,1.3,2.58-.05,5.16.03,7.73-.03,1.09-.03,1.59.24,1.57,1.45-.07,3.21-.06,6.41,0,9.62.02,1.1-.38,1.4-1.42,1.37-2.51-.06-5.03.03-7.55-.04-1.17-.03-1.68.24-1.65,1.55.08,3.77.06,7.55,0,11.32-.02,1.13.3,1.53,1.47,1.5,3.14-.08,6.29.02,9.43-.05,1.12-.02,1.55.28,1.53,1.46-.07,3.39-.07,6.79,0,10.19.02,1.2-.46,1.47-1.56,1.46-8.74-.03-17.48-.05-26.22.01-1.49.01-1.57-.67-1.57-1.82.03-10.31.02-20.62.02-30.94Z"/>
      <path class="cls-2" d="M942.4,239.11c.99-7.47,2.54-14.84,4.08-22.21.21-1.02.7-1.13,1.55-1.12,4.21.03,8.42.05,12.63-.01,1.33-.02,1.58.29,1.18,1.59-2.92,9.67-5.77,19.36-8.64,29.04-.29.96-.52,1.94-.89,2.88-2.19,5.61-2.62,11.42-2.38,17.38.17,4.27,0,8.55.06,12.82.02,1.15-.33,1.52-1.49,1.5-4.21-.06-8.42-.07-12.63,0-1.36.03-1.68-.45-1.67-1.73.06-6.6,0-13.2.04-19.8,0-1.53-.21-2.98-.64-4.45-3.63-12.6-7.23-25.2-10.83-37.81-.12-.41-.38-.81-.15-1.4,4.72,0,9.49.02,14.26-.02.8,0,1.11.32,1.24,1.04,1.32,7.41,2.88,14.79,3.62,22.3.22.35.44.35.67,0Z"/>
      <path class="cls-2" d="M559.75,254.82c0-7.99-.06-15.97.05-23.96.02-1.74-.52-2.12-2.11-2.03-2.19.13-4.4-.01-6.6.05-1.06.03-1.43-.34-1.42-1.41.05-3.46.06-6.92,0-10.37-.02-1.15.47-1.33,1.46-1.33,11.38.03,22.76.03,34.15,0,1.03,0,1.45.25,1.43,1.36-.06,3.46-.06,6.92,0,10.37.02,1.1-.39,1.41-1.44,1.38-2.14-.06-4.28.08-6.41-.05-1.66-.1-2.21.33-2.21,2.12.08,15.84.05,31.69.05,47.53q0,2.45-2.4,2.45c-4.21,0-8.43-.08-12.64.04-1.63.05-1.95-.5-1.94-2.02.07-8.05.03-16.1.03-24.14Z"/>
      <path class="cls-2" d="M805.76,248.23c0-10.19.02-20.37-.03-30.56,0-1.4.26-1.96,1.83-1.92,4.4.12,8.8.11,13.2,0,1.58-.04,1.97.44,1.97,1.99-.06,15.97,0,31.94-.08,47.91,0,1.83.44,2.39,2.27,2.25,2.25-.17,4.53,0,6.79-.06.99-.03,1.3.3,1.29,1.29-.05,3.52-.05,7.04,0,10.56.02,1.04-.42,1.25-1.34,1.25-8.18-.02-16.35-.05-24.53.02-1.55.01-1.37-.86-1.37-1.81,0-10.31,0-20.62,0-30.94Z"/>
      <path class="cls-2" d="M874.13,230.07c-.56-6.77-3.92-11.51-10.26-14.05-4.13-1.66-8.45-1.82-12.8-1.34-8.82.98-14.94,6.99-15.39,15.33-.66,12.24-.7,24.5.02,36.74.4,6.75,3.96,11.48,10.32,14,3.84,1.52,7.84,1.77,11.87,1.38,11.15-1.08,16.13-8.46,16.36-16.64.16-5.72.18-11.43.25-16.63-.03-6.61.13-12.71-.37-18.79ZM857.52,248.31c0,5.78.02,11.57-.01,17.35,0,1.13-.17,2.25-.31,3.37-.16,1.37-.87,2.19-2.33,2.2-1.46,0-2.19-.77-2.31-2.18-.11-1.38-.29-2.75-.29-4.13-.03-11.13-.02-22.26-.02-33.39,0-1.39.07-2.77.38-4.12.29-1.27,1.09-1.92,2.42-1.92,1.28,0,1.92.68,2.18,1.9.25,1.18.3,2.37.3,3.56,0,5.78,0,11.57,0,17.35h-.01Z"/>
      <path class="cls-2" d="M799.03,229.8c-.58-6.46-3.82-11.05-9.78-13.62-4.21-1.81-8.65-2-13.14-1.52-9.03.95-15.13,7.09-15.54,15.8-.57,11.99-.57,24,.01,35.99.34,7.03,4.48,12.38,11.15,14.58,4.71,1.55,9.52,1.67,14.32.54,8.05-1.9,12.49-7.36,13.06-15.59.4-5.84.23-11.68.31-17.25-.06-6.49.17-12.71-.39-18.92ZM782.41,266.04c0,1.19-.16,2.39-.4,3.55-.26,1.22-1.17,1.71-2.39,1.65-1.17-.06-1.92-.65-2.07-1.8-.19-1.49-.35-3-.36-4.51-.03-11.13-.04-22.26,0-33.39,0-1.38.15-2.76.38-4.12.21-1.27,1.07-1.93,2.4-1.92,1.28,0,1.92.68,2.19,1.89.25,1.12.28,2.24.29,3.37.01,5.78,0,11.57,0,17.35h-.02c0,5.97.02,11.95-.02,17.92Z"/>
    </g>
    <g>
      <path class="cls-4" d="M545.22,360.05c.09-11.59,2.28-21.5,8.48-30.26,4.58-6.48,10.55-10.7,18.67-11.32,10.85-.83,19.43,5.77,21.73,16.69.19.92.23,1.88.48,2.78.39,1.38,0,1.95-1.48,1.97-1.63.03-3.52.85-4.8.26-1.35-.63-.96-2.87-1.44-4.38-3.37-10.59-14.95-13.39-23.54-5.62-4.37,3.95-6.93,9.05-8.58,14.6-2.39,8.02-3.05,16.18-.94,24.36,1.75,6.8,6.47,11.06,12.72,11.69,4.7.47,8.6-1.31,11.81-4.69,3.01-3.17,4.99-6.92,6.1-11.11.36-1.34.9-1.7,2.2-1.36,1.27.33,2.58.62,3.89.68,1.49.07,1.76.54,1.27,1.94-2,5.68-4.49,11.05-8.9,15.32-12.85,12.46-31.75,7.19-36.27-10.11-1.07-4.1-1.36-8.3-1.39-11.45Z"/>
      <path class="cls-4" d="M433.11,388.28c-10.7-.03-16.8-6.16-16.87-16.34,0-1.1.21-1.69,1.41-1.54.18.02.37-.03.56-.05,1.44-.1,3.07-.66,4.28-.17,1.45.59.63,2.53.92,3.85,1.56,7.1,9.69,10.37,15.68,6.19,3.75-2.62,4.06-7.87.63-10.91-1.56-1.39-3.39-2.38-5.2-3.39-2.3-1.29-4.65-2.5-6.86-3.92-4.9-3.15-6.84-8.52-5.37-14.5,1.37-5.59,5.9-9.63,11.48-10.21,2.39-.25,4.77-.21,7.12.34,6.43,1.49,10.95,7.21,10.96,13.83,0,.83-.12,1.35-1.09,1.28-.37-.03-.75.02-1.13.05-1.38.1-2.97.67-4.07.17-1.09-.5-.58-2.35-1-3.57-1.84-5.28-9.04-7.64-13.62-4.41-3.41,2.41-3.57,6.85-.32,9.46,1.58,1.27,3.37,2.18,5.14,3.13,2.38,1.27,4.72,2.61,6.99,4.09,5.43,3.55,6.93,8.74,5.95,14.77-.91,5.64-5.58,10.2-11.22,11.41-1.61.35-3.23.48-4.36.45Z"/>
      <path class="cls-4" d="M304.23,346.04c1.68-1.55,3.15-3.17,4.78-4.62,2.29-2.04,4.85-3.62,7.91-4.12,6.77-1.09,11.88,3.22,12.26,10.22.26,4.83-.91,9.49-1.67,14.19-1.28,7.87-2.71,15.71-3.98,23.58-.23,1.45-.7,2.1-2.24,1.92-1.18-.14-2.39-.1-3.58,0-1.27.1-1.4-.36-1.2-1.52,1.93-11.07,3.79-22.15,5.66-33.23.1-.62.17-1.25.2-1.87.23-5.17-2.68-7.56-7.76-6.31-4.63,1.14-7.56,4.29-9.56,8.42-2.15,4.46-2.99,9.29-3.81,14.13-1.07,6.31-2.21,12.61-3.25,18.93-.17,1.07-.47,1.54-1.62,1.45-1.31-.1-2.64-.1-3.96,0-1.23.09-1.5-.34-1.29-1.5,1.07-5.99,2.08-12,3.11-18,1.58-9.22,3.2-18.43,4.72-27.66.23-1.4.69-1.86,2.13-1.84,4.38.07,4.38,0,3.64,4.39-.19,1.14-.34,2.29-.5,3.44Z"/>
      <path class="cls-4" d="M244.65,345.57c1.77-1.87,3.44-3.83,5.54-5.36,2.06-1.5,4.27-2.66,6.83-2.96,6.49-.75,11.27,3.21,11.81,9.73.43,5.15-.87,10.11-1.68,15.12-1.26,7.8-2.7,15.58-3.96,23.39-.22,1.33-.65,1.85-2.01,1.73-1.31-.12-2.64-.07-3.96-.01-1.07.05-1.19-.31-1.02-1.32,1.9-10.94,3.74-21.9,5.6-32.85.24-1.43.33-2.88.24-4.32-.17-2.72-2-4.56-4.72-4.67-5.56-.22-9.21,2.83-11.84,7.3-2.45,4.17-3.39,8.88-4.21,13.59-1.19,6.86-2.38,13.73-3.49,20.6-.21,1.31-.69,1.83-2.05,1.67-1.61-.19-3.79.67-4.71-.32-.93-1.01.18-3.05.45-4.63,2.39-14.17,4.83-28.33,7.23-42.5.18-1.07.54-1.56,1.79-1.57,4.74,0,4.73-.06,3.9,4.69-.09.49-.09,1-.14,1.5-.12.48-.55,1.06.4,1.18Z"/>
      <path class="cls-4" d="M907.27,345.96c1.74-1.53,3.21-3.14,4.85-4.6,2.24-2,4.76-3.53,7.75-4.05,6.8-1.18,12,3.18,12.37,10.29.25,4.76-.91,9.36-1.66,14-1.28,7.87-2.69,15.71-3.99,23.57-.23,1.42-.58,2.31-2.31,2.04-1.54-.24-3.63.64-4.53-.31-.93-.98.18-2.93.43-4.44,1.67-10.09,3.41-20.17,5.07-30.27.42-2.57.75-5.29-1.69-7.11-2.51-1.86-5.31-1.28-7.9-.15-3.82,1.66-6.25,4.73-7.89,8.48-2.13,4.89-2.89,10.11-3.79,15.3-.99,5.69-2.01,11.37-2.92,17.07-.18,1.14-.58,1.47-1.67,1.41-1.32-.08-2.65-.11-3.96,0-1.34.11-1.41-.51-1.23-1.56,2.65-15.34,5.28-30.68,7.89-46.02.16-.95.46-1.5,1.54-1.4,1.55.15,3.59-.66,4.53.32.86.89-.21,2.8-.4,4.27-.14,1.05-.31,2.1-.47,3.15Z"/>
      <path class="cls-4" d="M84.84,379.55c9,0,17.79.06,26.58-.05,1.88-.02,2.21.56,1.81,2.19-.33,1.34-.54,2.71-.69,4.08-.12,1.09-.58,1.44-1.7,1.43-11.06-.04-22.12-.06-33.19.01-1.52,0-1.54-.55-1.34-1.74,1.85-10.63,3.66-21.27,5.48-31.91,1.83-10.7,3.69-21.4,5.47-32.11.23-1.4.62-2.13,2.19-1.94,1.24.15,2.53.15,3.76,0,1.72-.21,1.77.61,1.54,1.93-3.24,18.67-6.45,37.35-9.67,56.02-.11.62-.15,1.24-.25,2.07Z"/>
      <path class="cls-4" d="M830.72,320.44c-.96,5.65-1.79,10.96-2.79,16.24-.25,1.33.03,1.66,1.3,1.58,1.25-.09,2.52.03,3.77-.03.97-.05,1.45.22,1.14,1.27-.02.06-.01.12-.02.19q-.56,5.02-5.56,5.03c-1.07,0-2.02-.18-2.28,1.4-1.64,10.17-3.41,20.31-5.07,30.48-.58,3.57.65,4.76,4.27,4.36.5-.05,1-.15,1.49-.25.77-.16,1.23-.08.95.91-.23.84-.34,1.72-.5,2.59q-.63,3.44-4.21,3.8c-6.3.63-10.11-3.14-9.15-9.37,1.61-10.36,3.41-20.69,5.14-31.04.03-.19.09-.37.12-.55q.4-2.32-1.94-2.33-3.03,0-2.56-2.94c.56-3.51.57-3.58,4.18-3.5,1.41.03,1.95-.39,2.15-1.79.43-3.11,1.05-6.19,1.58-9.28.08-.49.1-.98.58-1.32,2.38-1.73,4.75-3.48,7.4-5.43Z"/>
      <path class="cls-4" d="M654.43,319.56c3.23,0,3.27,0,2.72,3.23-3.46,20.29-6.94,40.58-10.43,60.87-.61,3.54-.67,3.53-4.17,3.53-3.25,0-3.29,0-2.74-3.24,3.53-20.73,7.08-41.45,10.63-62.18.38-2.21.39-2.21,3.99-2.21Z"/>
      <path class="cls-4" d="M756.77,346.71c1.83-2.86,3.66-5.72,6.44-7.8,2.74-2.04,5.6-2.3,8.65-.72.91.47,1.35.86.85,2-.78,1.77-1.36,3.64-1.99,5.48-.24.7-.49.86-1.19.41-2.68-1.73-5.17-1.01-7.47.8-2.68,2.12-4.44,4.91-5.68,8.07-2.22,5.65-3.06,11.63-4.12,17.56-.79,4.45-1.57,8.9-2.28,13.36-.16,1.02-.56,1.4-1.58,1.34-1.25-.07-2.52-.05-3.77,0-.98.04-1.43-.05-1.2-1.32,2.68-15.33,5.3-30.68,7.89-46.03.2-1.22.58-1.65,1.87-1.64,4.53.02,4.52-.04,3.71,4.36-.23,1.23-.37,2.48-.56,3.72-.14.42,0,.56.42.42Z"/>
      <path class="cls-4" d="M218.1,347.03c.83-1.22,1.62-2.47,2.48-3.66,1.36-1.9,2.91-3.63,4.89-4.92,2.78-1.8,5.56-1.63,8.36-.05.56.31.9.6.63,1.31-.75,1.99-1.5,3.99-2.18,6.01-.3.88-.67.64-1.22.3-2.47-1.52-4.82-1.04-7.02.57-2.77,2.02-4.58,4.77-5.88,7.91-2.49,6.04-3.3,12.47-4.45,18.83-.76,4.2-1.51,8.4-2.19,12.62-.15.92-.44,1.23-1.4,1.28-5.39.24-5.36.27-4.45-4.99,2.43-14.1,4.85-28.21,7.21-42.32.21-1.23.56-1.69,1.86-1.69,4.58,0,4.58-.06,3.75,4.53-.25,1.39-.48,2.78-.71,4.17l.31.12Z"/>
      <path class="cls-4" d="M942.49,378.4c2.21-12.54,4.4-24.89,6.58-37.24.81-4.57,1.66-9.13,2.38-13.72.19-1.17.56-1.66,1.77-1.51.87.1,1.76.02,2.64.02,3.31,0,3.3,0,2.73,3.17-2.76,15.62-5.55,31.24-8.22,46.88-.32,1.89-.9,2.7-2.91,2.44-1.59-.21-3.23-.04-4.96-.04Z"/>
      <path class="cls-4" d="M401.79,387.18c-3.39,0-3.4,0-2.84-3.27,2.52-14.71,5.06-29.42,7.54-44.15.2-1.18.57-1.65,1.77-1.55,1.12.09,2.27.13,3.39,0,1.79-.23,1.91.6,1.65,2.05-1.16,6.48-2.25,12.98-3.37,19.47-1.45,8.41-2.97,16.8-4.3,25.23-.29,1.84-.91,2.55-2.7,2.23-.37-.06-.75,0-1.13,0Z"/>
      <path class="cls-4" d="M836.84,387.18c-3.52,0-3.47,0-2.85-3.55,2.46-14.29,4.94-28.58,7.29-42.89.33-1.99.98-2.65,3.05-2.56,4.28.19,4.25.05,3.5,4.39-2.43,14.11-4.87,28.21-7.21,42.34-.29,1.73-.75,2.68-2.65,2.29-.36-.07-.75-.01-1.13-.01Z"/>
      <path class="cls-4" d="M276.83,387.18c-3.37,0-3.39,0-2.8-3.44,2.51-14.66,5.05-29.31,7.51-43.97.2-1.17.54-1.67,1.75-1.55,1.67.16,3.93-.71,4.88.35.98,1.09-.18,3.18-.46,4.82-2.39,14.1-4.82,28.2-7.18,42.31-.2,1.22-.67,1.62-1.82,1.49-.62-.07-1.26-.01-1.88-.01Z"/>
      <path class="cls-4" d="M943.52,392.55c-2.39-.03-4.07-1.66-4.08-3.99-.02-3.08,2.81-5.76,6.02-5.7,2.42.05,4.01,1.68,3.97,4.05-.06,3.08-2.77,5.67-5.9,5.64Z"/>
      <path class="cls-4" d="M286.77,329.02q-3.36,0-2.84-3.28c.27-1.67.59-3.33.84-5,.13-.88.49-1.27,1.46-1.21,1.43.09,2.88.06,4.32.01.94-.03,1.33.13,1.08,1.24-.47,2.14-.83,4.3-1.09,6.47-.16,1.36-.64,2.02-2.09,1.78-.55-.09-1.12-.02-1.69-.02Z"/>
      <path class="cls-4" d="M848.36,319.56q3.38,0,2.81,3.41c-.27,1.61-.61,3.21-.77,4.83-.1.99-.51,1.27-1.44,1.23-1.44-.06-2.89-.05-4.33,0-.85.03-1.29-.1-1.1-1.13.46-2.47.85-4.95,1.25-7.42.11-.68.44-.97,1.14-.93.81.04,1.63.01,2.45,0Z"/>
      <path class="cls-4" d="M411.73,329.02q-3.4,0-2.87-3.25c.28-1.67.63-3.32.85-5,.14-1.05.65-1.29,1.62-1.23,1.74.11,4.17-.57,5.06.33.93.94-.37,3.23-.5,4.96-.02.31-.15.61-.2.92q-.57,3.27-3.96,3.27Z"/>
      <path class="cls-4" d="M374.33,338.26c-1.57-.04-3.14,0-4.71,0-.82,0-.78.63-.87,1.18-.37,2.09-.76,4.18-1.19,6.52-.9-1.4-1.55-2.54-2.32-3.6-3.86-5.22-9.91-6.69-15.73-3.82-2.81,1.38-5.17,3.35-7.04,5.86-4.65,6.23-7.03,13.27-7.2,21.02-.11,4.81.38,9.55,2.61,13.93,2.8,5.51,7.54,8.35,13.04,7.75,3.93-.43,6.76-2.8,9.28-5.62.74-.07.5.38.41.76-.48,3.23-1.16,6.42-1.95,9.59-1.86,7.46-7.1,8.57-12.69,8-2.53-.26-4.42-1.51-5.19-4.22-.3-1.07.5-2.6-.84-3.15-1.06-.44-2.35-.33-3.53-.46-.31-.03-.65,0-.93-.1-1.75-.61-1.97.39-2.03,1.77-.27,6.2,3,10.94,9.05,12.41,10.61,2.56,18.75-.98,22.33-11.44.71-2.08,1.37-4.18,1.75-6.34,1.79-10.2,3.54-20.41,5.29-30.62,1.03-6,2.05-12,3.04-18.01.08-.51.61-1.35-.54-1.38ZM359.53,375.3c-.97,1.49-2.3,2.65-3.82,3.58-4.59,2.8-9.23,1.5-11.71-3.28-1.11-2.14-1.61-4.55-1.86-9.72.08-5.32,1.48-11.26,4.89-16.56,2.11-3.29,4.99-5.74,9.27-5.39,4.06.33,7.52,3.92,8.29,8.8,1.3,8.16-.57,15.69-5.06,22.58Z"/>
      <path class="cls-4" d="M738.9,353.69c-.3-4.3-1.2-8.46-4.01-11.95-4.26-5.3-10.81-6.15-16.2-2.01-1.34,1.03-2.52,2.26-3.78,3.4-.41-.44-.22-.91-.08-1.37.94-5.63,1.89-11.27,2.82-16.9.28-1.71,1.45-4.05.55-4.97-.88-.9-3.32-.23-5.07-.33-1.06-.06-1.5.23-1.7,1.39-3.49,20.67-7.03,41.33-10.56,62-.23,1.35-1.02,3.24-.43,3.93.8.94,2.72.15,4.13.35,1.36.19,1.69-.51,1.86-1.65.35-2.32.79-4.63,1.3-7.5.79,2.08,1.44,3.57,2.33,4.94,3.24,5,8.68,6.66,14.14,4.25,4.51-1.99,7.6-5.46,9.91-9.71,4.05-7.46,5.37-15.48,4.79-23.86ZM727.83,374.96c-.63,1.24-1.39,2.39-2.34,3.41-4.9,5.19-12.02,3.67-14.34-3.07-1.18-3.42-1.08-6.97-.72-10.46.51-4.9,1.91-9.59,4.14-14.01.97-1.93,2.26-3.62,3.96-4.98,4.12-3.3,9.04-2.45,11.73,2.1,1.76,2.98,2.02,6.3,2.01,9.66-.11,6.13-1.65,11.9-4.44,17.35Z"/>
      <path class="cls-4" d="M199.89,350.77c.2-6.31-3.09-11.16-9.19-12.81-9.28-2.51-18.89.21-23.14,11.08-1.2,3.06-1.24,3.04,1.93,3.4.87.1,1.75.16,2.62.32,1,.18,1.37-.23,1.73-1.17,2.22-5.72,5.77-7.93,11.97-7.57,5.26.31,7.88,3.34,7.21,8.57-.57,4.45.16,4.25-5.08,5.04-3.97.6-8.01.64-11.99,1.17-8.33,1.1-13.2,6.66-13.39,15.06-.2,9.13,5.51,15.03,13.95,14.35,2.75-.22,5.21-1.3,7.48-2.85,1.65-1.13,3.08-2.53,4.78-4.06.19,1.55.35,2.8.48,4.04.14,1.26.53,2.07,2.09,1.88,1.3-.17,2.64-.08,3.95-.02.95.05,1.24-.3,1.05-1.21-1.18-5.35-.24-10.6.65-15.88,1.09-6.43,2.71-12.78,2.92-19.34ZM187.35,375.56c-1.82,2.93-4.33,5.01-7.71,5.93-4.65,1.26-8.61-.64-9.86-4.74-1.5-4.87.78-9.7,5.32-11.14,1.37-.43,2.8-.68,4.22-.9,1.98-.31,3.99-.48,5.97-.78,1.96-.29,3.9-.67,6-1.47-.73,4.75-1.5,9.17-3.94,13.09Z"/>
      <path class="cls-4" d="M503.92,337.59c-2.11-.47-4.24-.51-6.38-.38-9.8.58-14.24,7.44-16.29,13.93-.1.31-.41.68.07.99.26.17,6.08.73,6.36.59.4-.2.36-.63.5-.96,2.51-6.03,5.88-8.16,12.25-7.73,5.2.35,7.83,3.6,7.02,8.75-.66,4.23.32,4.03-5.08,4.85-3.97.61-8.02.64-12,1.18-6.23.84-10.81,3.98-12.68,10.24-1.06,3.57-.99,7.21.16,10.77,1.73,5.38,6.16,8.52,11.79,8.46,3.68-.04,6.86-1.39,9.7-3.62,1.27-1,2.46-2.1,3.85-3.3.12.98.24,1.78.32,2.58q.31,3.25,3.47,3.25c.88,0,1.77-.06,2.64.01,1.06.09,1.3-.36,1.1-1.32-1.17-5.75-.1-11.37.9-17.01,1.02-5.75,2.31-11.45,2.72-17.3.5-7.13-3.43-12.42-10.42-13.98ZM502.78,373.78c-1.82,3.79-4.56,6.59-8.74,7.72-4.65,1.26-8.59-.68-9.82-4.81-1.44-4.83.78-9.58,5.21-11.06,2.64-.88,5.4-1.13,8.14-1.44,2.68-.31,5.34-.71,8.18-1.72-.63,4.08-1.3,7.84-2.97,11.32Z"/>
      <path class="cls-4" d="M799.02,338.26c-10.61-4.07-22.16,1.87-24.93,12.78-.25.98.04,1.21.91,1.27,1.44.11,2.88.25,4.31.44.91.12,1.4-.05,1.79-1.07,2.28-5.88,5.79-8.05,12.09-7.66,5.3.33,7.91,3.56,7.1,8.85-.64,4.14.25,3.93-4.97,4.74-3.97.62-8.02.65-12,1.18-6.23.82-10.83,3.91-12.74,10.16-1.13,3.7-1.03,7.46.21,11.13,1.73,5.15,6.18,8.22,11.62,8.19,3.26-.02,6.15-1.09,8.81-2.89,1.66-1.13,3.1-2.52,4.84-4.13.15,1.41.32,2.47.37,3.53.09,1.78.74,2.75,2.75,2.43,1.1-.18,2.26-.08,3.39-.02.99.06,1.18-.36,1.01-1.23-1.19-5.94-.04-11.74.99-17.57.99-5.56,2.22-11.08,2.62-16.74.45-6.35-2.47-11.21-8.17-13.4ZM795.32,374.38c-1.82,3.49-4.48,6.03-8.36,7.09-4.65,1.28-8.63-.63-9.88-4.72-1.5-4.9.76-9.72,5.31-11.15,1.61-.5,3.29-.79,4.96-1.06,1.86-.3,3.75-.4,5.6-.71,1.83-.31,3.64-.76,5.6-1.18-.62,4.08-1.33,8.06-3.24,11.72Z"/>
      <path class="cls-4" d="M634.82,351.23c-1.64-9.48-8.4-14.94-17.4-13.95-4.95.54-8.93,3.07-11.82,7.02-6.84,9.35-8.96,19.85-6.45,31.09,1.35,6.07,4.79,10.82,11.26,12.46,9.02,2.29,21.19-6.3,22.27-15.6.1-.83-.21-.96-.88-1.02-1.38-.13-2.78-.19-4.11-.5-1.2-.28-1.62.15-2.04,1.2-1.28,3.22-3.24,5.95-6.22,7.85-5.17,3.29-10.4,1.71-12.87-3.89-1.32-3-1.49-6.19-1.5-9.42,0-1.29.39-1.72,1.72-1.69,4.4.08,8.8.03,13.21.03,4.47,0,8.93-.03,13.4.02,1.06.01,1.52-.18,1.63-1.38.39-4.09.52-8.16-.18-12.22ZM627.44,358.45c-3.26-.09-6.52-.03-9.79-.03-3.39,0-6.78-.02-10.16.01-.79,0-1.18-.13-.92-1.03,1.16-4.08,2.71-7.96,6-10.86,2.87-2.53,6.16-3.72,9.9-2.44,3.64,1.25,5.23,4.26,5.99,7.82.36,1.67.36,3.36.44,5.05.05,1.14-.25,1.51-1.44,1.48Z"/>
      <path class="cls-4" d="M154.73,345.35c-2.97-5.72-7.77-8.57-14.29-8.17-6.11.38-10.63,3.53-13.95,8.48-5.18,7.71-7,16.3-6.26,25.46.3,3.73,1.37,7.26,3.44,10.45,3.48,5.37,9.47,7.94,15.68,6.31,8.01-2.11,12.58-7.8,15.16-15.37.31-.91.07-1.22-.88-1.28-1.31-.08-2.64-.18-3.92-.47-1.21-.27-1.72.06-2.19,1.24-1.33,3.34-3.39,6.14-6.56,8.01-4.92,2.9-9.75,1.48-12.27-3.66-1.63-3.31-1.79-6.88-1.69-10.49.03-1.16.77-1.06,1.55-1.06,4.46,0,8.92,0,13.39,0,4.46,0,8.92,0,13.39,0,.61,0,1.4.31,1.51-.82.65-6.36.97-12.73-2.09-18.62ZM146.45,358.42h-6.98c-3.21,0-6.41-.04-9.62.02-1.23.02-1.69-.16-1.26-1.54.95-3.01,2.06-5.93,4.04-8.44,3.1-3.93,7.54-5.72,11.38-4.47,4.71,1.54,6.13,5.44,6.62,9.82.51,4.6.43,4.61-4.18,4.61Z"/>
      <path class="cls-4" d="M694.41,348.39c-2.44-7.87-8.72-12.07-16.8-11.09-5.53.67-9.65,3.78-12.69,8.3-5.41,8.06-7.2,17.03-6.17,26.59.39,3.66,1.6,7.11,3.82,10.11,3.66,4.94,8.65,6.78,14.59,5.74,6.85-1.2,14.33-8.74,15.76-15.51.19-.88.02-1.26-.95-1.31-1.32-.08-2.65-.16-3.92-.48-1.29-.32-1.75.21-2.18,1.3-1.23,3.1-3.12,5.72-5.95,7.59-5.34,3.53-10.75,1.9-13.21-4.02-1.23-2.97-1.35-6.1-1.34-9.26,0-1.22.37-1.59,1.61-1.57,4.4.07,8.8.03,13.21.03,4.53,0,9.06,0,13.58,0,.65,0,1.36.21,1.48-.9.55-5.22.72-10.43-.86-15.51ZM687.99,358.43c-3.39-.03-6.78-.01-10.17-.01-3.33,0-6.66,0-9.99,0-.63,0-1.26.15-.96-.94,1.17-4.24,2.8-8.19,6.24-11.14,6.03-5.17,13.45-2.85,15.45,4.83.52,2.02.62,4.08.66,6.16.02.98-.4,1.12-1.23,1.12Z"/>
      <path class="cls-4" d="M888.71,348.4c-2.06-7.71-8.47-11.73-16.42-11.19-6.43.44-10.98,3.92-14.35,9.15-4.22,6.53-5.78,13.82-5.87,21.49,0,2.26.11,4.51.56,6.74,1.79,8.91,8.68,14.34,17.53,13.59,5.3-.45,9.59-3.09,12.71-7.27,7.31-9.82,8.96-20.89,5.85-32.52ZM879.06,374.31c-1.18,2.18-2.67,4.1-4.73,5.54-5.39,3.78-11.57,2-14.08-4.08-1.13-2.72-1.3-5.6-1.28-8.51.04-5.62,1.28-10.95,3.86-15.95,1.29-2.5,3.01-4.62,5.45-6.11,5.42-3.28,11.2-1.44,13.68,4.39,1.15,2.72,1.37,5.59,1.35,8.5,0,5.78-1.51,11.16-4.25,16.22Z"/>
    </g>
  </g>
  <text class="cls-1" transform="translate(1402.6112 356.1602)"><tspan x="0" y="0">A++</tspan></text>
  <text class="cls-3" transform="translate(1064.8524 271.2393)"><tspan x="0" y="0">NAAC</tspan></text>
  <text class="cls-5" transform="translate(1055.8172 356.1612)"><tspan x="0" y="0">GRADE</tspan></text>
  <line class="cls-7" x1="1021.41" y1="122.61" x2="1021.41" y2="354.25"/>
</svg>